<svg width="128" height="128" viewBox="0 0 128 128" fill="none" xmlns="http://www.w3.org/2000/svg">
<g clip-path="url(#clip0_82_217)">
<path d="M30.4718 0H97.514C105.595 0.000789326 113.345 3.21155 119.059 8.92605C124.773 14.6405 127.983 22.3907 127.983 30.4718V97.514C127.982 105.595 124.771 113.345 119.057 119.059C113.342 124.773 105.592 127.983 97.5111 127.983H30.4689C22.3877 127.982 14.6379 124.771 8.92394 119.057C3.21001 113.342 -3.85488e-08 105.592 0 97.5111V30.4689C0.000789326 22.3877 3.21155 14.6379 8.92605 8.92394C14.6405 3.21001 22.3907 -3.85488e-08 30.4718 0Z" fill="#605BFF"/>
<path d="M30.4859 69.9494L53.8048 93.2691V48.5874H33.1059L30.4859 69.9494Z" fill="#3F3AD5"/>
<path d="M51.9819 48.4561H30.4859V69.9505L51.9819 48.4561Z" fill="#11E6B4"/>
<mask id="mask0_82_217" style="mask-type:alpha" maskUnits="userSpaceOnUse" x="51" y="16" width="77" height="172">
<path d="M88.2517 16.3989L128 56.148L127.553 187.533L51.976 111.689V44.2598L88.2517 16.3989Z" fill="#3F3AD5"/>
</mask>
<g mask="url(#mask0_82_217)">
<path d="M30.4718 0.000488281H97.514C105.595 0.00127761 113.345 3.21204 119.059 8.92653C124.773 14.641 127.983 22.3912 127.983 30.4723V97.5145C127.982 105.596 124.771 113.346 119.057 119.059C113.342 124.773 105.592 127.983 97.511 127.983H30.4688C22.3877 127.983 14.6378 124.772 8.92388 119.057C3.20995 113.343 -6.10737e-05 105.593 -6.10352e-05 97.5116V30.4693C0.000728291 22.3882 3.21149 14.6384 8.92599 8.92443C14.6405 3.2105 22.3907 0.000488243 30.4718 0.000488281Z" fill="#3F3AD5"/>
</g>
<path d="M88.2517 38.007C79.0003 37.2103 74.3735 40.6929 74.3715 48.4547H88.2517V69.9499H74.3708V111.683H51.9812V48.4547C51.9812 37.7081 55.0159 29.5232 61.0851 23.8999C67.1544 18.2765 76.2095 15.8133 88.2503 16.5103L88.2517 38.007Z" fill="white"/>
</g>
<defs>
<clipPath id="clip0_82_217">
<rect width="128" height="128" fill="white"/>
</clipPath>
</defs>
</svg>
