<svg width="16" height="16" viewBox="0 0 16 16" fill="none" xmlns="http://www.w3.org/2000/svg">
<g clip-path="url(#clip0_82_176)">
<path d="M3.80898 0H12.1893C13.1994 9.86657e-05 14.1681 0.401444 14.8824 1.11576C15.5966 1.83007 15.9979 2.79884 15.9979 3.80898V12.1893C15.9978 13.1994 15.5964 14.1681 14.8821 14.8824C14.1678 15.5966 13.199 15.9979 12.1889 15.9979H3.80861C2.79847 15.9978 1.82973 15.5964 1.11549 14.8821C0.401251 14.1678 -4.8186e-09 13.199 0 12.1889V3.80861C9.86657e-05 2.79847 0.401444 1.82973 1.11576 1.11549C1.83007 0.401251 2.79884 -4.8186e-09 3.80898 0Z" fill="#605BFF"/>
<path d="M3.81073 8.74349L6.72558 11.6585V6.07324H4.13822L3.81073 8.74349Z" fill="#3F3AD5"/>
<path d="M6.49772 6.05713H3.81073V8.74393L6.49772 6.05713Z" fill="#11E6B4"/>
<mask id="mask0_82_176" style="mask-type:alpha" maskUnits="userSpaceOnUse" x="6" y="2" width="10" height="22">
<path d="M11.0315 2.0498L16 7.01844L15.9442 23.4416L6.49701 13.9611V5.53241L11.0315 2.0498Z" fill="#3F3AD5"/>
</mask>
<g mask="url(#mask0_82_176)">
<path d="M3.80898 0H12.1893C13.1994 9.86657e-05 14.1681 0.401444 14.8824 1.11576C15.5966 1.83007 15.9979 2.79884 15.9979 3.80898V12.1893C15.9978 13.1994 15.5964 14.1681 14.8821 14.8824C14.1678 15.5966 13.199 15.9979 12.1889 15.9979H3.80861C2.79847 15.9978 1.82973 15.5964 1.11549 14.8821C0.401251 14.1678 -4.8186e-09 13.199 0 12.1889V3.80861C9.86657e-05 2.79847 0.401444 1.82973 1.11576 1.11549C1.83007 0.401251 2.79884 -4.8186e-09 3.80898 0Z" fill="#3F3AD5"/>
</g>
<path d="M11.0315 4.75081C9.87503 4.65123 9.29668 5.08655 9.29643 6.05678H11.0315V8.74368H9.29634V13.9603H6.49765V6.05678C6.49765 4.71345 6.87698 3.69033 7.63564 2.98742C8.39429 2.28451 9.52618 1.97661 11.0313 2.06373L11.0315 4.75081Z" fill="white"/>
</g>
<defs>
<clipPath id="clip0_82_176">
<rect width="16" height="16" fill="white"/>
</clipPath>
</defs>
</svg>
