<svg width="32" height="32" viewBox="0 0 32 32" fill="none" xmlns="http://www.w3.org/2000/svg">
<g clip-path="url(#clip0_82_197)">
<path d="M7.61796 0H24.3785C26.3988 0.000197331 28.3363 0.802889 29.7647 2.23151C31.1932 3.66013 31.9957 5.59768 31.9957 7.61796V24.3785C31.9955 26.3988 31.1928 28.3363 29.7642 29.7647C28.3356 31.1932 26.398 31.9957 24.3778 31.9957H7.61722C5.59694 31.9955 3.65947 31.1928 2.23099 29.7642C0.802502 28.3356 -9.6372e-09 26.398 0 24.3778V7.61722C0.000197331 5.59694 0.802889 3.65947 2.23151 2.23099C3.66013 0.802502 5.59768 -9.63721e-09 7.61796 0Z" fill="#605BFF"/>
<path d="M7.62149 17.4875L13.4512 23.3174V12.147H8.27647L7.62149 17.4875Z" fill="#3F3AD5"/>
<path d="M12.9955 12.1138H7.62149V17.4874L12.9955 12.1138Z" fill="#11E6B4"/>
<mask id="mask0_82_197" style="mask-type:alpha" maskUnits="userSpaceOnUse" x="12" y="4" width="20" height="43">
<path d="M22.0629 4.09961L32 14.0369L31.8884 46.8831L12.994 27.9221V11.0648L22.0629 4.09961Z" fill="#3F3AD5"/>
</mask>
<g mask="url(#mask0_82_197)">
<path d="M7.61793 0H24.3785C26.3988 0.000197331 28.3362 0.802889 29.7647 2.23151C31.1932 3.66013 31.9957 5.59768 31.9957 7.61796V24.3785C31.9955 26.3988 31.1928 28.3363 29.7642 29.7647C28.3356 31.1932 26.398 31.9957 24.3777 31.9957H7.61718C5.59691 31.9955 3.65944 31.1928 2.23095 29.7642C0.802471 28.3356 -3.05272e-05 26.398 -3.05176e-05 24.3778V7.61722C0.000166814 5.59694 0.802858 3.65947 2.23148 2.23099C3.6601 0.802502 5.59765 -9.63721e-09 7.61793 0Z" fill="#3F3AD5"/>
</g>
<path d="M22.0629 9.50162C19.7501 9.30246 18.5934 10.1731 18.5929 12.1136H22.0629V17.4874H18.5927V27.9206H12.9953V12.1136C12.9953 9.42691 13.754 7.38067 15.2713 5.97484C16.7886 4.56901 19.0524 3.95321 22.0626 4.12745L22.0629 9.50162Z" fill="white"/>
</g>
<defs>
<clipPath id="clip0_82_197">
<rect width="32" height="32" fill="white"/>
</clipPath>
</defs>
</svg>
