<svg width="48" height="48" viewBox="0 0 48 48" fill="none" xmlns="http://www.w3.org/2000/svg">
<g clip-path="url(#clip0_82_207)">
<path d="M11.4269 0H36.5678C39.5982 0.000295997 42.5044 1.20433 44.6471 3.34727C46.7898 5.4902 47.9936 8.39652 47.9936 11.4269V36.5678C47.9933 39.5982 46.7893 42.5044 44.6463 44.6471C42.5034 46.7898 39.5971 47.9936 36.5667 47.9936H11.4258C8.3954 47.9933 5.4892 46.7893 3.34648 44.6463C1.20375 42.5034 -1.44558e-08 39.5971 0 36.5667V11.4258C0.000295997 8.3954 1.20433 5.4892 3.34727 3.34648C5.4902 1.20375 8.39652 -1.44558e-08 11.4269 0Z" fill="#605BFF"/>
<path d="M11.4322 26.231L20.1768 34.9758V18.2202H12.4147L11.4322 26.231Z" fill="#3F3AD5"/>
<path d="M19.4932 18.1709H11.4322V26.2313L19.4932 18.1709Z" fill="#11E6B4"/>
<mask id="mask0_82_207" style="mask-type:alpha" maskUnits="userSpaceOnUse" x="19" y="6" width="29" height="65">
<path d="M33.0944 6.14941L48 21.0553L47.8326 70.3247L19.491 41.8832V16.5972L33.0944 6.14941Z" fill="#3F3AD5"/>
</mask>
<g mask="url(#mask0_82_207)">
<path d="M11.4269 0H36.5677C39.5982 0.000295997 42.5044 1.20433 44.6471 3.34727C46.7898 5.4902 47.9936 8.39652 47.9936 11.4269V36.5678C47.9933 39.5982 46.7892 42.5044 44.6463 44.6471C42.5034 46.7898 39.597 47.9936 36.5666 47.9936H11.4258C8.39537 47.9933 5.48917 46.7893 3.34645 44.6463C1.20372 42.5034 -3.0532e-05 39.5971 -3.05176e-05 36.5667V11.4258C0.00026548 8.3954 1.2043 5.4892 3.34724 3.34648C5.49017 1.20375 8.39649 -1.44558e-08 11.4269 0Z" fill="#3F3AD5"/>
</g>
<path d="M33.0944 14.2524C29.6251 13.9537 27.89 15.2597 27.8893 18.1703H33.0944V26.231H27.889V41.8808H19.493V18.1703C19.493 14.1404 20.6309 11.071 22.9069 8.96226C25.1829 6.85352 28.5785 5.92982 33.0938 6.19118L33.0944 14.2524Z" fill="white"/>
</g>
<defs>
<clipPath id="clip0_82_207">
<rect width="48" height="48" fill="white"/>
</clipPath>
</defs>
</svg>
